<?xml version="1.0" encoding="utf-8"?>
<!-- Generator: Adobe Illustrator 27.0.0, SVG Export Plug-In . SVG Version: 6.00 Build 0)  -->
<svg version="1.1" id="Layer_1" xmlns="http://www.w3.org/2000/svg" xmlns:xlink="http://www.w3.org/1999/xlink" x="0px" y="0px"
	 viewBox="0 0 795 345" style="enable-background:new 0 0 795 345;" xml:space="preserve">
<style type="text/css">
	.st0{fill:#BEA12E;}
	.st1{fill:#262767;}
	.st2{font-family:'Montserrat-Regular';}
	.st3{font-size:61.0888px;}
	.st4{letter-spacing:12;}
	.st5{font-family:'Montserrat-Black';}
	.st6{font-family:'Caveat-Regular';}
	.st7{font-size:28px;}
	.st8{letter-spacing:5;}
</style>
<image style="display:none;overflow:visible;enable-background:new    ;" width="544" height="544" xlink:href="AE881145.png"  transform="matrix(1 0 0 1 26 -17)">
</image>
<g>
	<g>
		<path class="st0" d="M106.8,192.5c0-17.6,0-35.3,0-53c0-1.5-0.2-3-0.2-4.5c-0.1-3.9-1.6-4.2-4.6-2.1c-6.5,4.5-13.3,8.7-19.8,13.3
			c-3.3,2.3-5.5,1.3-7.6-1.4c-0.1-0.1-0.2-0.3-0.3-0.4c-1.6-3.4-5.6-6-5.6-9.8c0.1-4.3,5-5,8-7.2c14.9-11.1,30.6-20.9,45.7-31.6
			c9-6.3,18-12.6,27.1-18.8c14.4-9.8,28.9-19.5,43.2-29.4c4.2-2.9,8.5-5.7,12.4-8.7c4.5-3.5,7.9-2,11,0.6c6.9,5.9,14.5,11,21.9,16
			C246,61,254,66.4,261.9,71.8c8.6,5.8,16.8,12.1,25.6,17.6c9.8,6.1,18.9,13,28.7,19.1c6.4,4,12.6,8.5,18.7,12.9
			c3.9,2.8,7.6,6,11.8,8.1c4.5,2.2,4.4,5.1,2.8,8.8c-0.2,0.6-0.7,1.1-1,1.7c-6.7,9.7-7.1,9.5-16.8,2.6c-14.3-10.2-29-19.8-43.5-29.7
			c-9.2-6.3-18-13.3-27.6-19c-10-6-19-13.3-29.1-19.1c-5.9-3.4-11.2-8-17-11.8c-3.7-2.4-6.3-2-10.1,0.6c-6.3,4.3-12.6,8.6-19.1,12.7
			c-6.2,3.9-12.3,8.3-18.4,12.5c-7.2,4.9-14.5,9.8-21.6,14.8c-5.2,3.6-10.3,7.6-15.8,10.8c-2.3,1.3-2.3,3.8-2.2,6.2
			c0.1,22.8,0.1,45.6,0.1,68.4c0,12.2-0.1,12.3,11.9,12.3c20.8,0.1,41.6,0.1,62.4,0.1c34.3,0,68.5,0,102.8,0c8.5,0,8.8,0.3,8.8,8.6
			c0,12.2,0,24.3,0,36.5c0,3.8-1,5.9-5.6,6c-4,0.1-7.9-0.8-11.9-0.4c-2.3,0.2-2.8-1.2-2.8-3.1c0-2.3,0-4.7-0.3-7
			c-0.7-6.3-4.9-9.9-11.4-9.9c-47.3,0-94.6,0.1-141.9-0.2c-7.2,0-12.7,5.8-12.4,11.9c0.1,1.7-0.2,3.3,0,5c0.3,2.9-1.1,3.9-3.8,3.8
			c-0.2,0-0.3,0-0.5,0c-15.8,0.7-15.8,0.7-15.8-14.9C106.8,222.5,106.8,207.5,106.8,192.5z"/>
		<path class="st1" d="M250.8,190.7c-19,0-38-0.1-56.9,0.1c-3.5,0-4.6-1-4.5-4.5c0.2-10.6,0.1-21.3,0-32c0-3.3,0.7-4.6,4.4-4.6
			c32.8,0.1,65.6,0,98.4,0.1c12.3,0,20.5,8.1,21,20.5c0.2,5.3-0.2,10.7,0.2,16c0.2,3.6-1.1,4.5-4.5,4.4
			C289.4,190.7,270.1,190.7,250.8,190.7z"/>
		<path class="st1" d="M138.8,168.9c-0.1-10.8,8-18.9,19.1-19c11.5-0.2,20.8,8.8,20.8,20.2c0.1,11.6-8.9,20.6-20.5,20.6
			C145.8,190.7,138.9,183,138.8,168.9z"/>
	</g>
	<g>
		<text transform="matrix(1 0 0 1 354.155 160.2827)" class="st1 st2 st3 st4">SARAH</text>
		<text transform="matrix(1 0 0 1 357.0241 231.2641)" class="st1 st5 st3">HOMESTAY</text>
	</g>
	<rect x="158.8" y="261.8" class="st0" width="520.4" height="8"/>
	<text transform="matrix(1 0 0 1 282.489 299.6308)" class="st1 st6 st7 st8">a home away from home</text>
</g>
</svg>
